<svg width="32" height="32" viewBox="0 0 32 32" fill="none" xmlns="http://www.w3.org/2000/svg">
<path d="M15.9994 16.0001V8.88789C15.9994 6.40523 15.9994 5.16389 16.7798 4.77075C17.5602 4.37759 18.5458 5.12239 20.5171 6.61199L21.4582 7.3232C22.8386 8.36632 23.5288 8.88789 23.5288 9.59911C23.5288 10.3103 22.8386 10.8319 21.4582 11.875L15.9994 16.0001ZM15.9994 16.0001V23.1122C15.9994 25.5949 15.9994 26.8362 16.7798 27.2294C17.5602 27.6226 18.5458 26.8778 20.5171 25.3882L21.4582 24.677C22.8386 23.6338 23.5288 23.1122 23.5288 22.401C23.5288 21.6898 22.8386 21.1682 21.4582 20.1251L15.9994 16.0001ZM15.9994 16.0001L7.52881 9.59911M15.9994 16.0001L7.52881 22.401" stroke="#202020" stroke-width="1.5" stroke-linecap="round" stroke-linejoin="round"/>
<path d="M25.333 16H25.345" stroke="#202020" stroke-width="2" stroke-linecap="round" stroke-linejoin="round"/>
<path d="M6.6665 16H6.67848" stroke="#202020" stroke-width="2" stroke-linecap="round" stroke-linejoin="round"/>
</svg>
