<svg width="16" height="16" viewBox="0 0 16 16" fill="none" xmlns="http://www.w3.org/2000/svg">
<path d="M4.89304 2H2.6579C2.28942 2 1.98958 2.29981 2.00028 2.66813C2.21342 10.0094 5.99062 13.7866 13.3319 13.9997C13.7002 14.0104 14 13.7106 14 13.3421V11.1069C14 10.8433 13.8447 10.6043 13.6038 10.4973L11.3769 9.50753C11.1447 9.40433 10.8741 9.442 10.6789 9.60467L9.31026 10.7452C9.11746 10.9058 8.8498 10.9454 8.621 10.8425C6.70573 9.98067 6.0193 9.29427 5.15756 7.379C5.05461 7.1502 5.09417 6.88253 5.2548 6.68973L6.3953 5.32115C6.55797 5.12594 6.59564 4.85527 6.49243 4.62307L5.50272 2.39621C5.39564 2.15527 5.1567 2 4.89304 2Z" stroke="#B1B1B1"/>
</svg>
