<svg width="20" height="20" viewBox="0 0 20 20" fill="none" xmlns="http://www.w3.org/2000/svg">
<path d="M14.1666 5C16.1213 5 16.682 5 17.3552 5.51662C17.5285 5.64962 17.6837 5.80477 17.8167 5.9781C18.3333 6.65137 18.3333 7.62868 18.3333 9.58333V13.3333C18.3333 15.6903 18.3333 16.8688 17.601 17.6011C16.8688 18.3333 15.6903 18.3333 13.3333 18.3333H6.66663C4.3096 18.3333 3.13109 18.3333 2.39886 17.6011C1.66663 16.8688 1.66663 15.6903 1.66663 13.3333V9.58333C1.66663 7.62868 1.66663 6.65137 2.18324 5.9781C2.31624 5.80477 2.47139 5.64962 2.64473 5.51662C3.31799 5 3.87864 5 5.83329 5" stroke="#B1B1B1" stroke-linecap="round"/>
<path d="M14.1667 5.83341L13.4285 3.98794C13.11 3.19171 12.8329 2.2885 12.0139 1.88304C11.577 1.66675 11.0514 1.66675 10 1.66675C8.94871 1.66675 8.42304 1.66675 7.98617 1.88304C7.16721 2.2885 6.89005 3.19171 6.57157 3.98794L5.83337 5.83341" stroke="#B1B1B1" stroke-linecap="round" stroke-linejoin="round"/>
<path d="M12.9167 11.6667C12.9167 13.2775 11.6109 14.5833 10 14.5833C8.38921 14.5833 7.08337 13.2775 7.08337 11.6667C7.08337 10.0558 8.38921 8.75 10 8.75C11.6109 8.75 12.9167 10.0558 12.9167 11.6667Z" stroke="#B1B1B1"/>
<path d="M9.99988 5H10.0074" stroke="#B1B1B1" stroke-width="1.5" stroke-linecap="round" stroke-linejoin="round"/>
</svg>
