<svg width="24" height="24" viewBox="0 0 24 24" fill="none" xmlns="http://www.w3.org/2000/svg">
<path d="M18.75 4H10.463C9.48549 4 8.55949 4.3745 7.85649 5.054L2.90199 9.843C2.31199 10.4135 1.98749 11.179 1.98749 12C1.98749 12.821 2.31199 13.5865 2.90199 14.1565L7.85649 18.9455C8.55949 19.6255 9.48549 20 10.463 20H18.75C20.542 20 22 18.542 22 16.75V7.25C22 5.458 20.542 4 18.75 4ZM17.7805 14.7195C18.0735 15.0125 18.0735 15.487 17.7805 15.78C17.634 15.927 17.442 16 17.25 16C17.058 16 16.866 15.927 16.7195 15.7805L14 13.0605L11.2805 15.78C11.134 15.927 10.942 16 10.75 16C10.558 16 10.366 15.927 10.2195 15.7805C9.92649 15.4875 9.92649 15.013 10.2195 14.72L12.9395 12L10.22 9.2805C9.92699 8.9875 9.92699 8.513 10.22 8.22C10.513 7.927 10.9875 7.927 11.2805 8.22L14 10.9395L16.7195 8.22C17.0125 7.927 17.487 7.927 17.78 8.22C18.073 8.513 18.073 8.9875 17.78 9.2805L15.0605 12L17.7805 14.7195Z" fill="#F24141"/>
</svg>
