<svg width="16" height="16" viewBox="0 0 16 16" fill="none" xmlns="http://www.w3.org/2000/svg">
<path d="M10.9499 3.07006L11.6099 2.41007C12.1567 1.86331 13.0431 1.86331 13.5899 2.41007C14.1366 2.95683 14.1366 3.84329 13.5899 4.39005L12.9299 5.05004M10.9499 3.07006L6.51031 7.5096C6.17197 7.848 5.93195 8.27187 5.8159 8.73607L5.33325 10.6667L7.26385 10.184C7.72805 10.068 8.15192 9.82793 8.49032 9.4896L12.9299 5.05004M10.9499 3.07006L12.9299 5.05004" stroke="#1B73FE" stroke-linejoin="round"/>
<path d="M12.6666 8.99992C12.6666 11.1916 12.6666 12.2874 12.0613 13.025C11.9505 13.16 11.8267 13.2838 11.6917 13.3946C10.9541 13.9999 9.85827 13.9999 7.6666 13.9999H7.33333C4.81917 13.9999 3.56211 13.9999 2.78106 13.2189C2.00002 12.4379 2 11.1807 2 8.66659V8.33325C2 6.1416 2 5.04578 2.60529 4.30821C2.71611 4.17319 2.83993 4.04937 2.97496 3.93855C3.71253 3.33325 4.80835 3.33325 7 3.33325" stroke="#1B73FE" stroke-linecap="round" stroke-linejoin="round"/>
</svg>
