<svg width="20" height="20" viewBox="0 0 20 20" fill="none" xmlns="http://www.w3.org/2000/svg">
<path d="M6.25 7.5C6.94036 7.5 7.5 6.94036 7.5 6.25C7.5 5.55964 6.94036 5 6.25 5C5.55964 5 5 5.55964 5 6.25C5 6.94036 5.55964 7.5 6.25 7.5Z" stroke="#B1B1B1" stroke-linecap="round" stroke-linejoin="round"/>
<path d="M2.08337 9.99992C2.08337 6.26797 2.08337 4.40199 3.24274 3.24262C4.40212 2.08325 6.26809 2.08325 10 2.08325C13.732 2.08325 15.598 2.08325 16.7574 3.24262C17.9167 4.40199 17.9167 6.26797 17.9167 9.99992C17.9167 13.7318 17.9167 15.5978 16.7574 16.7573C15.598 17.9166 13.732 17.9166 10 17.9166C6.26809 17.9166 4.40212 17.9166 3.24274 16.7573C2.08337 15.5978 2.08337 13.7318 2.08337 9.99992Z" stroke="#B1B1B1"/>
<path d="M4.16663 17.5C7.81034 13.1458 11.895 7.40334 17.9145 11.2853" stroke="#B1B1B1"/>
</svg>
