<svg width="12" height="12" viewBox="0 0 12 12" fill="none" xmlns="http://www.w3.org/2000/svg">
<path d="M7.87583 5.18546C7.87583 5.00138 7.72658 4.85213 7.54249 4.85214C7.35841 4.85214 7.20917 5.00138 7.20916 5.18547L7.20916 6.73776L4.00696 3.53555C3.87679 3.40538 3.66573 3.40537 3.53555 3.53555C3.40538 3.66573 3.40538 3.87678 3.53555 4.00696L6.73776 7.20916L5.18547 7.20916C5.00139 7.20916 4.85214 7.35841 4.85214 7.54249C4.85216 7.7266 5.00139 7.87582 5.18549 7.87584L7.53999 7.87582C7.54862 7.87587 7.55727 7.87561 7.56587 7.87502C7.6001 7.87261 7.63289 7.8651 7.6635 7.85319C7.70501 7.83705 7.74392 7.81227 7.77749 7.7789L7.7782 7.77819C7.77893 7.77746 7.77966 7.77673 7.78039 7.776C7.80973 7.74609 7.83236 7.71201 7.84818 7.67569C7.86597 7.63488 7.87585 7.58984 7.87582 7.54249L7.87583 5.18546Z" fill="#13B5A4"/>
</svg>
