<svg width="16" height="16" viewBox="0 0 16 16" fill="none" xmlns="http://www.w3.org/2000/svg">
<path fill-rule="evenodd" clip-rule="evenodd" d="M1.33334 1.99992C1.33334 1.63173 1.63182 1.33325 2.00001 1.33325H14C14.3682 1.33325 14.6667 1.63173 14.6667 1.99992C14.6667 2.36811 14.3682 2.66659 14 2.66659H2.00001C1.63182 2.66659 1.33334 2.36811 1.33334 1.99992Z" fill="white"/>
<path fill-rule="evenodd" clip-rule="evenodd" d="M1.33334 13.9999C1.33334 13.6317 1.63182 13.3333 2.00001 13.3333H14C14.3682 13.3333 14.6667 13.6317 14.6667 13.9999C14.6667 14.3681 14.3682 14.6666 14 14.6666H2.00001C1.63182 14.6666 1.33334 14.3681 1.33334 13.9999Z" fill="white"/>
<path fill-rule="evenodd" clip-rule="evenodd" d="M9.33334 5.99992C9.33334 5.63173 9.63181 5.33325 10 5.33325H14C14.3682 5.33325 14.6667 5.63173 14.6667 5.99992C14.6667 6.36811 14.3682 6.66659 14 6.66659H10C9.63181 6.66659 9.33334 6.36811 9.33334 5.99992Z" fill="white"/>
<path fill-rule="evenodd" clip-rule="evenodd" d="M9.33334 9.99992C9.33334 9.63172 9.63181 9.33325 10 9.33325H14C14.3682 9.33325 14.6667 9.63172 14.6667 9.99992C14.6667 10.3681 14.3682 10.6666 14 10.6666H10C9.63181 10.6666 9.33334 10.3681 9.33334 9.99992Z" fill="white"/>
<path d="M4.5347 4.83325C5.13368 4.83323 5.63315 4.83322 6.02966 4.88653C6.4482 4.9428 6.82608 5.06658 7.12968 5.37023C7.43334 5.67387 7.55714 6.05174 7.61341 6.47027C7.66674 6.86679 7.66668 7.36625 7.66668 7.96525V8.03459C7.66668 8.63359 7.66674 9.13305 7.61341 9.52959C7.55714 9.94812 7.43334 10.326 7.12968 10.6296C6.82608 10.9333 6.4482 11.0571 6.02966 11.1133C5.63315 11.1667 5.13368 11.1666 4.5347 11.1666H4.46535C3.86637 11.1666 3.36688 11.1667 2.97036 11.1133C2.55183 11.0571 2.17396 10.9333 1.87032 10.6296C1.56667 10.326 1.44289 9.94812 1.38662 9.52959C1.33331 9.13305 1.33332 8.63359 1.33334 8.03459V7.96525C1.33332 7.36625 1.33331 6.86679 1.38662 6.47027C1.44289 6.05174 1.56667 5.67387 1.87032 5.37023C2.17396 5.06658 2.55183 4.9428 2.97036 4.88653C3.36688 4.83322 3.86635 4.83323 4.46532 4.83325H4.5347Z" fill="white"/>
</svg>

