<svg width="18" height="18" viewBox="0 0 18 18" fill="none" xmlns="http://www.w3.org/2000/svg">
<path d="M1.5 3C1.5 3.82843 2.17157 4.5 3 4.5C3.82843 4.5 4.5 3.82843 4.5 3C4.5 2.17157 3.82843 1.5 3 1.5C2.17157 1.5 1.5 2.17157 1.5 3Z" stroke="white" stroke-width="1.5"/>
<path d="M1.5 9C1.5 9.82845 2.17157 10.5 3 10.5C3.82843 10.5 4.5 9.82845 4.5 9C4.5 8.17155 3.82843 7.5 3 7.5C2.17157 7.5 1.5 8.17155 1.5 9Z" stroke="white" stroke-width="1.5"/>
<path d="M7.5 3C7.5 3.82843 8.17155 4.5 9 4.5C9.82845 4.5 10.5 3.82843 10.5 3C10.5 2.17157 9.82845 1.5 9 1.5C8.17155 1.5 7.5 2.17157 7.5 3Z" stroke="white" stroke-width="1.5"/>
<path d="M7.5 9C7.5 9.82845 8.17155 10.5 9 10.5C9.82845 10.5 10.5 9.82845 10.5 9C10.5 8.17155 9.82845 7.5 9 7.5C8.17155 7.5 7.5 8.17155 7.5 9Z" stroke="white" stroke-width="1.5"/>
<path d="M7.5 15C7.5 15.8284 8.17155 16.5 9 16.5C9.82845 16.5 10.5 15.8284 10.5 15C10.5 14.1716 9.82845 13.5 9 13.5C8.17155 13.5 7.5 14.1716 7.5 15Z" stroke="white" stroke-width="1.5"/>
<path d="M13.5 3C13.5 3.82843 14.1716 4.5 15 4.5C15.8284 4.5 16.5 3.82843 16.5 3C16.5 2.17157 15.8284 1.5 15 1.5C14.1716 1.5 13.5 2.17157 13.5 3Z" stroke="white" stroke-width="1.5"/>
<path d="M13.5 9C13.5 9.82845 14.1716 10.5 15 10.5C15.8284 10.5 16.5 9.82845 16.5 9C16.5 8.17155 15.8284 7.5 15 7.5C14.1716 7.5 13.5 8.17155 13.5 9Z" stroke="white" stroke-width="1.5"/>
</svg>
