<svg width="12" height="12" viewBox="0 0 12 12" fill="none" xmlns="http://www.w3.org/2000/svg">
<path d="M8.5 3.5V5.5C8.5 6.8807 7.3807 8 6 8C4.61929 8 3.5 6.8807 3.5 5.5V3.5C3.5 2.11929 4.61929 1 6 1C7.3807 1 8.5 2.11929 8.5 3.5Z" stroke="#202020" stroke-linejoin="round"/>
<path d="M8.5 3.5H6.5M8.5 5.5H6.5" stroke="#202020" stroke-linejoin="round"/>
<path d="M10 5.5C10 7.70915 8.20915 9.5 6 9.5M6 9.5C3.79086 9.5 2 7.70915 2 5.5M6 9.5V11M6 11H7.5M6 11H4.5" stroke="#202020" stroke-linejoin="round"/>
</svg>
