<svg width="32" height="32" viewBox="0 0 32 32" fill="none" xmlns="http://www.w3.org/2000/svg">
<path d="M2.6665 2.66675L29.3332 29.3334" stroke="#202020" stroke-width="1.5" stroke-linecap="round"/>
<path d="M5.3335 14.6667C5.3335 20.5578 10.1091 25.3334 16.0002 25.3334M16.0002 25.3334C18.6062 25.3334 20.994 24.3989 22.8466 22.8465M16.0002 25.3334V29.3334M16.0002 29.3334H20.0002M16.0002 29.3334H12.0002M26.6668 14.6667C26.6668 16.8686 25.9996 18.9146 24.8564 20.6138" stroke="#202020" stroke-width="1.5" stroke-linecap="round"/>
<path d="M22.6771 9.32799C22.6771 5.64609 19.6923 2.68799 16.0104 2.68799C13.5187 2.68799 11.3839 3.97501 10.2397 5.99999M22.6771 9.32799L18.6397 9.34399M22.6771 9.32799V14.672M22.6771 14.672V14.688C22.6771 15.7959 22.4068 16.7607 21.9287 17.68M22.6771 14.672H18.9105M9.34375 9.32799V14.688C9.34375 18.3699 12.3285 21.3547 16.0104 21.3547C17.5243 21.3547 18.8967 20.8341 20.0157 19.984" stroke="#202020" stroke-width="1.5" stroke-linecap="round"/>
</svg>
