<svg width="12" height="12" viewBox="0 0 12 12" fill="none" xmlns="http://www.w3.org/2000/svg">
<path d="M3.43789 5.18546C3.43789 5.00138 3.58714 4.85213 3.77123 4.85214C3.95532 4.85214 4.10456 5.00138 4.10456 5.18547L4.10456 6.73776L7.30676 3.53555C7.43694 3.40538 7.64799 3.40537 7.77817 3.53555C7.90834 3.66573 7.90834 3.87678 7.77817 4.00696L4.57596 7.20916L6.12825 7.20916C6.31233 7.20916 6.46158 7.35841 6.46158 7.54249C6.46156 7.7266 6.31233 7.87582 6.12823 7.87584L3.77373 7.87582C3.7651 7.87587 3.75645 7.87561 3.74785 7.87502C3.71362 7.87261 3.68084 7.8651 3.65022 7.85319C3.60871 7.83705 3.5698 7.81227 3.53623 7.7789L3.53553 7.77819C3.53479 7.77746 3.53406 7.77673 3.53333 7.776C3.50399 7.74609 3.48136 7.71201 3.46555 7.67569C3.44775 7.63488 3.43787 7.58984 3.4379 7.54249L3.43789 5.18546Z" fill="#F24141"/>
</svg>
