<svg width="8" height="8" viewBox="0 0 8 8" fill="none" xmlns="http://www.w3.org/2000/svg">
<path fill-rule="evenodd" clip-rule="evenodd" d="M2.9857 5.01437C3.11588 5.14454 3.11588 5.35561 2.9857 5.48577L1.31904 7.15244C1.18886 7.28261 0.977807 7.28261 0.84763 7.15244C0.717457 7.02227 0.717457 6.81121 0.84763 6.68104L2.5143 5.01437C2.64447 4.88421 2.85553 4.88421 2.9857 5.01437Z" fill="#B1B1B1"/>
<path d="M5.90314 0.851153C6.48567 1.06176 6.93827 1.51435 7.14887 2.09688C7.18457 2.19544 7.22664 2.31169 7.24197 2.41388C7.26007 2.53461 7.24804 2.6484 7.20271 2.77455C7.10564 3.04469 6.88814 3.16542 6.64844 3.29847L6.17581 3.56203C6.00487 3.65737 5.89204 3.7206 5.81164 3.7762C5.73337 3.8303 5.71114 3.86067 5.70191 3.8786C5.69701 3.88803 5.68181 3.93407 5.68581 4.08353C5.68957 4.22473 5.70791 4.41623 5.73417 4.68877C5.77657 5.12817 5.70367 5.56347 5.45011 5.96893C5.40731 6.03743 5.35351 6.1236 5.29337 6.18767C5.22234 6.26337 5.14054 6.31687 5.03514 6.35957C4.92787 6.40303 4.83027 6.42063 4.72497 6.41593C4.63537 6.41193 4.53251 6.38853 4.44664 6.369C3.78807 6.21947 3.15948 5.83737 2.66106 5.33897C2.16263 4.84053 1.78054 4.21197 1.63102 3.5534C1.61149 3.46757 1.5881 3.3647 1.58411 3.27512C1.57942 3.1698 1.59705 3.07219 1.64054 2.96491C1.68327 2.85953 1.73679 2.7777 1.81253 2.70669C1.87663 2.64658 1.96281 2.5928 2.0313 2.55006C2.43112 2.30028 2.86289 2.22322 3.29897 2.26179C3.57741 2.28642 3.77371 2.30365 3.91804 2.30666C3.98937 2.30815 4.07974 2.31434 4.12681 2.28982C4.14424 2.28073 4.17454 2.25843 4.22887 2.17963C4.28451 2.09892 4.34797 1.98566 4.44344 1.81447L4.70157 1.35159C4.83461 1.11189 4.95534 0.894393 5.22547 0.797336C5.35164 0.752009 5.46541 0.739966 5.58614 0.758073C5.68834 0.773396 5.80457 0.815476 5.90314 0.851153Z" fill="#B1B1B1"/>
</svg>
