<svg width="18" height="18" viewBox="0 0 18 18" fill="none" xmlns="http://www.w3.org/2000/svg">
<path d="M10.4554 4.7528C11.6801 5.44856 12.6425 5.99531 13.3282 6.49616C14.0185 7.00044 14.5291 7.5275 14.7119 8.22245C14.846 8.732 14.846 9.2681 14.7119 9.77765C14.5291 10.4726 14.0185 10.9996 13.3282 11.5039C12.6425 12.0048 11.6801 12.5515 10.4555 13.2473C9.2724 13.9194 8.27475 14.4861 7.5174 14.8083C6.75397 15.133 6.05797 15.2976 5.38152 15.1059C4.88439 14.965 4.43206 14.6976 4.06767 14.33C3.57314 13.8311 3.37463 13.1415 3.28072 12.3116C3.18749 11.4877 3.18749 10.4093 3.1875 9.03762V8.96247C3.18749 7.5908 3.18749 6.51236 3.28072 5.68853C3.37463 4.85862 3.57314 4.169 4.06767 3.67006C4.43206 3.30242 4.88439 3.03504 5.38152 2.89417C6.05797 2.70248 6.75397 2.86706 7.5174 3.19178C8.27475 3.51392 9.2724 4.08068 10.4554 4.7528Z" fill="#1B73FE"/>
</svg>
