<svg width="29" height="29" viewBox="0 0 29 29" fill="none" xmlns="http://www.w3.org/2000/svg">
<path d="M25.3702 14.2247C25.3914 13.6526 25.0706 13.1097 24.6978 12.6573C24.3061 12.182 23.7591 11.6906 23.1268 11.2049C21.8586 10.2309 20.1638 9.21679 18.4439 8.33452C16.7229 7.45169 14.9497 6.68686 13.5162 6.21954C12.8028 5.98696 12.1492 5.81999 11.6173 5.75541C11.3525 5.72325 11.0916 5.71307 10.8563 5.74453C10.6319 5.77453 10.3486 5.85326 10.1317 6.07288C9.56263 6.64938 9.5479 7.44429 9.6916 8.13141C9.83825 8.83278 10.1815 9.594 10.5667 10.3067C10.9561 11.027 11.4114 11.7387 11.8091 12.3443C11.8352 12.3839 11.8873 12.4632 11.9512 12.5604C12.1917 12.9262 12.312 13.1092 12.4972 13.209C12.6823 13.3089 12.9015 13.3089 13.3397 13.3089L17.6776 13.3089C18.1379 13.3089 18.511 13.682 18.511 14.1422C18.5109 14.6025 18.1378 14.9756 17.6776 14.9756L13.6323 14.9756C13.1855 14.9756 12.9622 14.9756 12.775 15.0783C12.5877 15.1809 12.468 15.3689 12.2284 15.7448C11.2995 17.2021 10.5431 18.4175 10.1088 19.3097C9.85508 19.8307 9.67017 20.3165 9.61337 20.7543C9.55409 21.2112 9.62957 21.6767 9.96981 22.0484C10.1816 22.2798 10.4671 22.3629 10.6873 22.3953C10.9194 22.4296 11.1773 22.4221 11.4385 22.3932C11.9634 22.335 12.612 22.1768 13.3221 21.9545C14.7493 21.5079 16.5247 20.7708 18.2563 19.9177C19.9872 19.0649 21.7005 18.0834 22.9967 17.1397C23.6431 16.6691 24.2052 16.194 24.6155 15.7353C25.0046 15.3004 25.3496 14.7798 25.3702 14.2247Z" fill="#B1B1B1"/>
</svg>
