<svg width="32" height="32" viewBox="0 0 32 32" fill="none" xmlns="http://www.w3.org/2000/svg">
<path d="M18.6665 19.7513V12.2485C18.6665 8.05493 18.6665 5.95813 17.4328 5.43632C16.199 4.91449 14.7469 6.39716 11.8429 9.36248C10.339 10.8981 9.48098 11.2382 7.34123 11.2382C5.46994 11.2382 4.5343 11.2382 3.86218 11.6967C2.46698 12.6487 2.67787 14.5093 2.67787 15.9999C2.67787 17.4906 2.46698 19.3511 3.86218 20.3031C4.5343 20.7616 5.46994 20.7616 7.34123 20.7616C9.48098 20.7616 10.339 21.1018 11.8429 22.6374C14.7469 25.6027 16.199 27.0854 17.4328 26.5635C18.6665 26.0417 18.6665 23.9449 18.6665 19.7513Z" stroke="white" stroke-width="1.5" stroke-linecap="round" stroke-linejoin="round"/>
<path d="M22.6665 12C23.5004 13.0929 23.9998 14.4845 23.9998 16C23.9998 17.5155 23.5004 18.9071 22.6665 20" stroke="white" stroke-width="1.5" stroke-linecap="round" stroke-linejoin="round"/>
<path d="M26.6665 9.33325C28.3342 11.1548 29.3332 13.4742 29.3332 15.9999C29.3332 18.5257 28.3342 20.8451 26.6665 22.6666" stroke="white" stroke-width="1.5" stroke-linecap="round" stroke-linejoin="round"/>
</svg>
