<svg width="16" height="16" viewBox="0 0 16 16" fill="none" xmlns="http://www.w3.org/2000/svg">
<path fill-rule="evenodd" clip-rule="evenodd" d="M1.33325 1.99992C1.33325 1.63173 1.63173 1.33325 1.99992 1.33325H13.9999C14.3681 1.33325 14.6666 1.63173 14.6666 1.99992C14.6666 2.36811 14.3681 2.66659 13.9999 2.66659H1.99992C1.63173 2.66659 1.33325 2.36811 1.33325 1.99992Z" fill="white"/>
<path fill-rule="evenodd" clip-rule="evenodd" d="M1.33325 13.9999C1.33325 13.6317 1.63173 13.3333 1.99992 13.3333H13.9999C14.3681 13.3333 14.6666 13.6317 14.6666 13.9999C14.6666 14.3681 14.3681 14.6666 13.9999 14.6666H1.99992C1.63173 14.6666 1.33325 14.3681 1.33325 13.9999Z" fill="white"/>
<path fill-rule="evenodd" clip-rule="evenodd" d="M9.33325 5.99992C9.33325 5.63173 9.63172 5.33325 9.99992 5.33325H13.9999C14.3681 5.33325 14.6666 5.63173 14.6666 5.99992C14.6666 6.36811 14.3681 6.66659 13.9999 6.66659H9.99992C9.63172 6.66659 9.33325 6.36811 9.33325 5.99992Z" fill="white"/>
<path fill-rule="evenodd" clip-rule="evenodd" d="M9.33325 9.99992C9.33325 9.63172 9.63172 9.33325 9.99992 9.33325H13.9999C14.3681 9.33325 14.6666 9.63172 14.6666 9.99992C14.6666 10.3681 14.3681 10.6666 13.9999 10.6666H9.99992C9.63172 10.6666 9.33325 10.3681 9.33325 9.99992Z" fill="white"/>
<path d="M4.53461 4.83325C5.13359 4.83323 5.63306 4.83322 6.02957 4.88653C6.44811 4.9428 6.82599 5.06658 7.12959 5.37023C7.43325 5.67387 7.55705 6.05174 7.61332 6.47027C7.66665 6.86679 7.66659 7.36625 7.66659 7.96525V8.03459C7.66659 8.63359 7.66665 9.13305 7.61332 9.52959C7.55705 9.94812 7.43325 10.326 7.12959 10.6296C6.82599 10.9333 6.44811 11.0571 6.02957 11.1133C5.63306 11.1667 5.13359 11.1666 4.53461 11.1666H4.46526C3.86628 11.1666 3.36679 11.1667 2.97027 11.1133C2.55174 11.0571 2.17387 10.9333 1.87023 10.6296C1.56658 10.326 1.4428 9.94812 1.38653 9.52959C1.33322 9.13305 1.33323 8.63359 1.33325 8.03459V7.96525C1.33323 7.36625 1.33322 6.86679 1.38653 6.47027C1.4428 6.05174 1.56658 5.67387 1.87023 5.37023C2.17387 5.06658 2.55174 4.9428 2.97027 4.88653C3.36679 4.83322 3.86626 4.83323 4.46523 4.83325H4.53461Z" fill="white"/>
</svg>